#tb 0: 1001/24000
#media_type 0: video
#codec_id 0: rawvideo
#dimensions 0: 320x180
#sar 0: 1/1
0,          0,          0,        1,   230400, 0xa40645e7
0,          1,          1,        1,   230400, 0x72b63e5e
0,          2,          2,        1,   230400, 0x030344b2
0,          3,          3,        1,   230400, 0xab8c42b8
0,          4,          4,        1,   230400, 0x1fcd3f00
0,          5,          5,        1,   230400, 0x371f3c27
0,          6,          6,        1,   230400, 0x0cfe3dff
0,          7,          7,        1,   230400, 0x0c64f102
0,          8,          8,        1,   230400, 0xbca2f2f7
0,          9,          9,        1,   230400, 0x5198f134
0,         10,         10,        1,   230400, 0xee02305e
0,         11,         11,        1,   230400, 0x22592ff1
0,         12,         12,        1,   230400, 0xa230311d
0,         13,         13,        1,   230400, 0x66453278
0,         14,         14,        1,   230400, 0x68c63165
0,         15,         15,        1,   230400, 0xded434ae
0,         16,         16,        1,   230400, 0xff1a4e51
0,         17,         17,        1,   230400, 0x31064c7b
0,         18,         18,        1,   230400, 0x3d374e74
0,         19,         19,        1,   230400, 0x58ec59d5
0,         20,         20,        1,   230400, 0x8c02570f
0,         21,         21,        1,   230400, 0x5f6b56ac
0,         22,         22,        1,   230400, 0x781f6408
0,         23,         23,        1,   230400, 0x1c0165d2
0,         24,         24,        1,   230400, 0xc6e66311
0,         25,         25,        1,   230400, 0x0375635d
0,         26,         26,        1,   230400, 0x00756822
0,         27,         27,        1,   230400, 0xb4276753
0,         28,         28,        1,   230400, 0x8b826638
0,         29,         29,        1,   230400, 0x201066e2
0,         30,         30,        1,   230400, 0x4acc6ab8
0,         31,         31,        1,   230400, 0xa78741fe
0,         32,         32,        1,   230400, 0xfe85481e
0,         33,         33,        1,   230400, 0x7153dae0
0,         34,         34,        1,   230400, 0x9b7ede62
0,         35,         35,        1,   230400, 0x785cad21
0,         36,         36,        1,   230400, 0x4c81ac20
0,         37,         37,        1,   230400, 0x2e9cc57c
0,         38,         38,        1,   230400, 0x0043c629
0,         39,         39,        1,   230400, 0xccb1e72d
0,         40,         40,        1,   230400, 0xf800d4d9
0,         41,         41,        1,   230400, 0xb40ad374
0,         42,         42,        1,   230400, 0xa94bd3eb
0,         43,         43,        1,   230400, 0xefa8b85f
0,         44,         44,        1,   230400, 0xa32ab85d
0,         45,         45,        1,   230400, 0xbb89b941
0,         46,         46,        1,   230400, 0x6556b8f0
0,         47,         47,        1,   230400, 0x3d5ab7ab
0,         48,         48,        1,   230400, 0x7b68afd9
0,         49,         49,        1,   230400, 0x7518b560
0,         50,         50,        1,   230400, 0x4d6bb43f
0,         51,         51,        1,   230400, 0xafe7b5a0
0,         52,         52,        1,   230400, 0x5211b1c0
0,         53,         53,        1,   230400, 0x4ababa33
0,         54,         54,        1,   230400, 0x90f7b7fc
0,         55,         55,        1,   230400, 0x0b0dba13
0,         56,         56,        1,   230400, 0xc9b6b5b4
0,         57,         57,        1,   230400, 0xa1c5bfcd
0,         58,         58,        1,   230400, 0xde30bdaf
0,         59,         59,        1,   230400, 0x6ae5bc07
0,         60,         60,        1,   230400, 0x9845b936
0,         61,         61,        1,   230400, 0xcad4bf41
0,         62,         62,        1,   230400, 0x90abca33
0,         63,         63,        1,   230400, 0x2c12c614
0,         64,         64,        1,   230400, 0x2d65c7ea
0,         65,         65,        1,   230400, 0x1949c8f3
0,         66,         66,        1,   230400, 0xe5adcb22
0,         67,         67,        1,   230400, 0xa87bc06c
0,         68,         68,        1,   230400, 0x4c43baeb
0,         69,         69,        1,   230400, 0xbf66c7f9
0,         70,         70,        1,   230400, 0x9883c62d
